<svg xmlns="http://www.w3.org/2000/svg" viewBox="0 0 1000 227.14">
    <path d="M371.16 170.84c-1.41-1.41-2.11-3.14-2.11-5.21V66.87c0-2.06.7-3.82 2.11-5.29 1.41-1.46 3.14-2.2 5.21-2.2h38.4c11.61 0 20.58 2.66 26.93 7.97 6.35 5.31 9.52 12.47 9.52 21.48 0 6.29-1.49 11.53-4.47 15.7-2.99 4.18-6.81 7.3-11.47 9.36 6.51 2.06 11.85 5.37 16.03 9.92 4.17 4.56 6.26 10.31 6.26 17.25 0 9.98-3.36 17.79-10.09 23.43-6.73 5.64-17.3 8.46-31.73 8.46h-39.37c-2.06 0-3.8-.7-5.21-2.11zm39.7-62.32c9.65 0 16.43-1.63 20.34-4.88 3.9-3.25 5.86-7.81 5.86-13.67 0-5.1-2.09-9.16-6.26-12.2-4.18-3.03-9.9-4.56-17.17-4.56h-29.77v35.31h27.01zm3.42 50.6c10.52 0 17.98-1.63 22.37-4.88 4.39-3.25 6.59-7.86 6.59-13.83 0-12.36-9.6-18.55-28.8-18.55h-30.59v37.26h30.43zm56.29-88.51c-1.63-1.63-2.44-3.58-2.44-5.86v-.65c0-2.28.81-4.23 2.44-5.86s3.58-2.44 5.86-2.44h.98c2.28 0 4.23.81 5.86 2.44s2.44 3.58 2.44 5.86v.65c0 2.28-.81 4.23-2.44 5.86s-3.58 2.44-5.86 2.44h-.98c-2.28 0-4.23-.81-5.86-2.44zm.98 101.04c-1.41-1.41-2.11-3.14-2.11-5.21V96.65c0-2.06.7-3.82 2.11-5.29 1.41-1.46 3.14-2.2 5.21-2.2 2.17 0 3.96.71 5.37 2.11 1.41 1.41 2.11 3.2 2.11 5.37v69.8c0 2.06-.73 3.8-2.2 5.21-1.46 1.41-3.23 2.11-5.29 2.11s-3.8-.71-5.21-2.11zm35.14-18.55v-50.44h-11.55c-.87 0-1.6-.3-2.2-.89-.6-.59-.89-1.33-.89-2.2 0-1.08.49-2.01 1.46-2.77l22.13-21.64c.98-.98 1.9-1.46 2.76-1.46s1.6.33 2.2.98c.59.65.89 1.41.89 2.28v13.02h18.39c1.84 0 3.36.6 4.56 1.79 1.19 1.19 1.79 2.71 1.79 4.56 0 1.74-.6 3.23-1.79 4.47-1.19 1.25-2.71 1.87-4.56 1.87h-18.39v49.14c0 4.23 1 6.91 3.01 8.05 2.01 1.14 4.53 1.71 7.57 1.71 2.17 0 4.34-.33 6.51-.98.43-.11.89-.22 1.38-.33.49-.11 1.11-.16 1.87-.16 1.52 0 2.87.57 4.07 1.71 1.19 1.14 1.79 2.52 1.79 4.15 0 2.5-1.25 4.39-3.74 5.69-4.23 1.95-8.73 2.93-13.5 2.93-15.84 0-23.75-7.16-23.75-21.48zm91.6 18.55c-1.41-1.41-2.11-3.14-2.11-5.21v-63.78h-9.6c-1.74 0-3.23-.62-4.47-1.87-1.25-1.25-1.87-2.74-1.87-4.47 0-1.84.62-3.36 1.87-4.56 1.25-1.19 2.74-1.79 4.47-1.79h9.6v-9.44c0-6.51 1.16-11.85 3.5-16.03 2.33-4.18 5.37-7.21 9.11-9.11 3.74-1.9 7.67-2.85 11.8-2.85 5.1 0 9.81 1.09 14.16 3.25 1.08.54 1.98 1.33 2.68 2.36.7 1.03 1.06 2.14 1.06 3.34 0 1.63-.6 3.07-1.79 4.31-1.19 1.25-2.6 1.87-4.23 1.87-1.19 0-2.44-.16-3.74-.49-2.6-.33-4.07-.49-4.39-.49-4.45 0-7.78 1.03-10.01 3.09-2.22 2.06-3.34 5.8-3.34 11.23v8.95h20.34c1.84 0 3.36.6 4.56 1.79 1.19 1.19 1.79 2.71 1.79 4.56 0 1.74-.6 3.23-1.79 4.47-1.19 1.25-2.71 1.87-4.56 1.87h-20.34v63.78c0 2.06-.73 3.8-2.2 5.21-1.46 1.41-3.23 2.11-5.29 2.11s-3.8-.71-5.21-2.11zm55.64-2.44c-6.29-3.58-11.15-8.65-14.56-15.21-3.42-6.56-5.13-14.07-5.13-22.54s1.71-15.97 5.13-22.53c3.42-6.56 8.27-11.63 14.56-15.21 6.29-3.58 13.61-5.37 21.97-5.37s15.51 1.79 21.8 5.37c6.29 3.58 11.17 8.65 14.64 15.21 3.47 6.56 5.21 14.07 5.21 22.53s-1.74 15.97-5.21 22.54c-3.47 6.56-8.35 11.63-14.64 15.21-6.29 3.58-13.56 5.37-21.8 5.37s-15.68-1.79-21.97-5.37zm34.74-11.23c4.07-2.06 7.43-5.31 10.09-9.76s3.99-10.09 3.99-16.92-1.33-12.31-3.99-16.76c-2.66-4.45-6.02-7.67-10.09-9.68s-8.33-3.01-12.77-3.01-8.87 1-12.94 3.01-7.4 5.23-10.01 9.68c-2.6 4.45-3.9 10.03-3.9 16.76s1.3 12.47 3.9 16.92c2.6 4.45 5.94 7.7 10.01 9.76 4.07 2.06 8.38 3.09 12.94 3.09s8.7-1.03 12.77-3.09zm43.52 13.67c-1.41-1.41-2.11-3.14-2.11-5.21V96.65c0-2.06.7-3.82 2.11-5.29 1.41-1.46 3.14-2.2 5.21-2.2s3.82.73 5.29 2.2c1.46 1.46 2.2 3.23 2.2 5.29v7c7.59-10.19 16.11-15.29 25.54-15.29h.81c2.06 0 3.77.71 5.12 2.11 1.36 1.41 2.03 3.15 2.03 5.21s-.71 3.74-2.11 5.04c-1.41 1.3-3.2 1.95-5.37 1.95h-.81c-5.21 0-9.98 1.28-14.32 3.82-4.34 2.55-7.97 6.05-10.9 10.49v49.46c0 2.06-.73 3.8-2.2 5.21-1.46 1.41-3.23 2.11-5.29 2.11s-3.8-.71-5.21-2.11zm91.28-.81c-1.41-1.41-2.11-3.14-2.11-5.21V66.87c0-2.06.7-3.82 2.11-5.29 1.41-1.46 3.14-2.2 5.21-2.2h38.4c11.61 0 20.58 2.66 26.93 7.97 6.35 5.31 9.52 12.47 9.52 21.48 0 6.29-1.49 11.53-4.47 15.7-2.99 4.18-6.81 7.3-11.47 9.36 6.51 2.06 11.85 5.37 16.03 9.92 4.17 4.56 6.26 10.31 6.26 17.25 0 9.98-3.36 17.79-10.09 23.43-6.73 5.64-17.3 8.46-31.73 8.46h-39.37c-2.06 0-3.8-.7-5.21-2.11zm39.7-62.32c9.65 0 16.43-1.63 20.34-4.88 3.9-3.25 5.86-7.81 5.86-13.67 0-5.1-2.09-9.16-6.26-12.2-4.18-3.03-9.9-4.56-17.17-4.56h-29.77v35.31h27.01zm3.42 50.6c10.52 0 17.98-1.63 22.37-4.88 4.39-3.25 6.59-7.86 6.59-13.83 0-12.36-9.6-18.55-28.8-18.55h-30.59v37.26h30.43zm56.29-88.51c-1.63-1.63-2.44-3.58-2.44-5.86v-.65c0-2.28.81-4.23 2.44-5.86s3.58-2.44 5.86-2.44h.98c2.28 0 4.23.81 5.86 2.44s2.44 3.58 2.44 5.86v.65c0 2.28-.81 4.23-2.44 5.86s-3.58 2.44-5.86 2.44h-.98c-2.28 0-4.23-.81-5.86-2.44zm.98 101.04c-1.41-1.41-2.11-3.14-2.11-5.21V96.65c0-2.06.7-3.82 2.11-5.29 1.41-1.46 3.14-2.2 5.21-2.2 2.17 0 3.96.71 5.37 2.11 1.41 1.41 2.11 3.2 2.11 5.37v69.8c0 2.06-.73 3.8-2.2 5.21-1.46 1.41-3.23 2.11-5.29 2.11s-3.8-.71-5.21-2.11zM959 153.1v-50.44h-11.55c-.87 0-1.6-.3-2.2-.89-.6-.59-.89-1.33-.89-2.2 0-1.08.49-2.01 1.46-2.77l22.13-21.64c.98-.98 1.9-1.46 2.76-1.46s1.6.33 2.2.98c.59.65.89 1.41.89 2.28v13.02h18.39c1.84 0 3.36.6 4.56 1.79 1.19 1.19 1.79 2.71 1.79 4.56 0 1.74-.6 3.23-1.79 4.47-1.19 1.25-2.71 1.87-4.56 1.87H973.8v49.14c0 4.23 1 6.91 3.01 8.05 2.01 1.14 4.53 1.71 7.57 1.71 2.17 0 4.34-.33 6.51-.98.43-.11.89-.22 1.38-.33.49-.11 1.11-.16 1.87-.16 1.52 0 2.87.57 4.07 1.71 1.19 1.14 1.79 2.52 1.79 4.15 0 2.5-1.25 4.39-3.74 5.69-4.23 1.95-8.73 2.93-13.5 2.93-15.84 0-23.75-7.16-23.75-21.48z"/>
    <path d="M226.91 218.77L169.61 4.92a6.644 6.644 0 00-4.7-4.7c-2.29-.61-4.74.04-6.42 1.72L1.94 158.5a6.651 6.651 0 00-1.72 6.42c.61 2.29 2.4 4.08 4.7 4.7l213.85 57.3c.57.15 1.15.23 1.72.23 1.74 0 3.43-.68 4.7-1.94a6.651 6.651 0 001.72-6.42z" fill="#003cf0"/>
    <path d="M273.89 205.02H52.49c-2.37 0-4.57-1.27-5.75-3.32a6.621 6.621 0 010-6.64L157.44 3.32c1.19-2.05 3.38-3.32 5.75-3.32s4.57 1.27 5.75 3.32l110.7 191.73a6.621 6.621 0 010 6.64 6.656 6.656 0 01-5.75 3.32zM64 191.74h198.39l-99.2-171.81L64 191.73z"/>
</svg>